PathFileType	4	(X/Y/Z)	TVC_32_Cal_03_0_static_RCNL2025.trc
DataRate	CameraRate	NumFrames	NumMarkers	Units	OrigDataRate	OrigDataStartFrame	OrigNumFrames
100	100	7	27	mm	100	25	197
Frame#	Time	R_Shoulder			L_Shoulder			C7			J_Notch			R_Elbow			L_Elbow			R_Wrist			L_Wrist			R_Asis			L_Asis			R_Psis			L_Psis			Sacral			Thoracic			Sternum			R_Thigh_Lateral			R_Knee_Lateral			R_Shank_Lateral			R_Ankle_Lateral			R_Heel			R_Toe			L_Thigh_Lateral			L_Knee_Lateral			L_Shank_Lateral			L_Ankle_Lateral			L_Heel			L_Toe		
		X1	Y1	Z1	X2	Y2	Z2	X3	Y3	Z3	X4	Y4	Z4	X5	Y5	Z5	X6	Y6	Z6	X7	Y7	Z7	X8	Y8	Z8	X9	Y9	Z9	X10	Y10	Z10	X11	Y11	Z11	X12	Y12	Z12	X13	Y13	Z13	X14	Y14	Z14	X15	Y15	Z15	X16	Y16	Z16	X17	Y17	Z17	X18	Y18	Z18	X19	Y19	Z19	X20	Y20	Z20	X21	Y21	Z21	X22	Y22	Z22	X23	Y23	Z23	X24	Y24	Z24	X25	Y25	Z25	X26	Y26	Z26	X27	Y27	Z27
25	0.24000000	-157.230682	1473.586426	-36.908638	-162.774582	1451.000610	-415.792633	-219.046524	1517.645020	-224.896851	-55.633781	1420.190552	-215.596466	-191.692184	1158.229980	134.183426	-173.169235	1117.585938	-514.641296	-113.362377	895.101685	103.073727	-86.588760	858.847290	-477.922592	-94.566322	1012.407776	-65.611565	-95.950081	1015.019897	-347.819763	-287.882233	1027.002319	-155.122574	-285.150635	1024.400757	-256.291534	-286.516434	1025.701538	-205.707054	-281.812347	1253.448364	-213.225922	-32.575218	1274.875854	-216.443115	-194.265045	638.652954	-2.160006	-178.344193	501.764191	-48.225616	-227.843384	302.916077	3.577127	-240.497971	82.335915	-60.909237	-293.794281	53.696117	-126.009827	-96.978149	41.610611	-55.862312	-162.206024	680.384338	-434.994659	-186.081848	503.161316	-398.382111	-205.407043	360.831238	-462.934662	-198.818176	76.546272	-425.186920	-265.629425	60.772232	-377.119659	-57.976799	40.946667	-404.385651
26	0.25000000	-157.194138	1473.526001	-36.953800	-162.783386	1450.988647	-415.791229	-219.008682	1517.629150	-224.927917	-55.586426	1420.277954	-215.511917	-191.680710	1158.184570	134.171906	-173.142624	1117.567383	-514.623657	-113.341724	895.129181	103.021442	-86.734840	858.853912	-477.970718	-94.467232	1012.400452	-65.552399	-96.048813	1015.006470	-347.875916	-287.914062	1027.032593	-155.124786	-285.074066	1024.321045	-256.438385	-286.494064	1025.676819	-205.781586	-281.784180	1253.484863	-213.177811	-32.625225	1274.880005	-216.347351	-194.478287	638.582397	-2.233444	-178.318558	501.800049	-48.254230	-228.182068	302.595367	3.536511	-240.346664	82.331146	-60.970531	-293.821930	53.756695	-125.932724	-96.943169	41.701077	-55.801804	-162.164627	680.332886	-435.030273	-186.128677	503.199829	-398.370178	-205.358917	360.829254	-462.973755	-198.829895	76.572311	-425.250214	-265.559540	60.904018	-377.029358	-57.979038	40.903133	-404.404968
27	0.26000000	-157.170441	1473.479004	-36.974739	-162.827911	1450.999756	-415.835724	-219.032394	1517.650269	-224.925629	-55.579105	1420.240601	-215.562790	-191.678680	1158.202637	134.162155	-173.244324	1117.569580	-514.605408	-113.359222	895.090576	103.024826	-86.739487	858.878235	-477.950745	-94.437538	1012.404175	-65.568726	-96.077980	1015.015442	-347.867706	-287.889923	1026.989624	-155.120560	-285.090179	1024.328247	-256.256561	-286.490051	1025.658936	-205.688560	-281.822998	1253.480469	-213.235168	-32.594181	1274.875000	-216.447891	-194.431656	638.692810	-2.267525	-178.361420	501.746735	-48.241436	-227.899170	302.818542	3.462743	-240.314636	82.323845	-60.980225	-293.837616	53.797642	-125.915947	-96.971222	41.620613	-55.857624	-162.180893	680.329224	-435.041168	-186.165192	503.135498	-398.382202	-205.377090	360.790192	-462.972717	-198.807175	76.598572	-425.252960	-265.623413	60.855434	-376.915131	-57.974037	40.891239	-404.407745
28	0.27000000	-157.178497	1473.521851	-36.962700	-163.113342	1451.137329	-416.113434	-219.034973	1517.609863	-224.889755	-55.593586	1420.241821	-215.631149	-191.698303	1158.193481	134.176849	-173.214691	1117.595459	-514.749512	-113.323448	895.052368	102.990108	-86.786076	858.820160	-477.903549	-94.509491	1012.377991	-65.639542	-96.089554	1014.941956	-347.823364	-287.868256	1027.028198	-155.014679	-285.111267	1024.368896	-256.234589	-286.489761	1025.698547	-205.624634	-281.771667	1253.357910	-213.162018	-32.713608	1274.701538	-216.373337	-194.451492	638.589233	-2.260195	-178.424896	501.770752	-48.235229	-227.975174	303.298248	4.010796	-240.362671	82.273140	-60.937496	-293.854095	53.717525	-125.877365	-96.969635	41.723095	-55.772762	-162.269775	680.249084	-434.992645	-186.160492	503.083435	-398.341461	-205.413773	360.816437	-462.901215	-198.827957	76.553833	-425.229462	-265.603455	60.814110	-376.984375	-57.898983	40.875744	-404.403656
29	0.28000000	-157.136337	1473.507202	-36.945206	-162.852936	1451.042603	-415.840332	-219.127029	1517.613647	-224.824020	-55.611347	1420.199463	-215.829300	-191.734238	1158.125854	134.206528	-173.194061	1117.569336	-514.588379	-113.364689	895.077454	103.006306	-86.843067	858.852478	-477.890030	-94.445938	1012.346558	-65.702599	-96.089714	1014.940186	-347.825348	-287.870300	1027.014282	-155.005188	-285.093353	1024.338501	-256.229736	-286.481827	1025.676392	-205.617462	-281.759583	1253.347412	-213.153336	-32.726433	1274.808838	-216.379700	-194.487579	638.544617	-2.232109	-178.466599	501.780884	-48.179417	-228.094711	303.366425	4.133827	-240.526291	82.276100	-60.902172	-293.868073	53.747417	-125.880272	-96.978981	41.628616	-55.849667	-162.287888	680.259033	-435.015686	-186.184097	503.076782	-398.287628	-205.419937	360.834808	-462.901337	-198.837601	76.497047	-425.197052	-265.643890	60.802219	-376.983368	-57.990776	40.902348	-404.360474
30	0.29000000	-157.171860	1473.526489	-36.963924	-162.842743	1451.040527	-415.769531	-219.076080	1517.584351	-224.747391	-55.707153	1420.203857	-215.920181	-191.711349	1158.207031	134.203857	-173.353653	1117.646362	-514.734558	-113.446064	895.060974	103.007645	-86.975113	858.819855	-477.879883	-94.392113	1012.410095	-65.627464	-95.984749	1014.965576	-347.787262	-287.868866	1027.029297	-154.978714	-285.106689	1024.344482	-256.176575	-286.487778	1025.686890	-205.577644	-281.778290	1253.358398	-213.131592	-32.710091	1274.776611	-216.504211	-194.591492	638.560974	-2.224312	-178.502335	501.803833	-48.195610	-228.104752	303.373108	4.148283	-240.403122	82.284416	-60.914276	-293.881226	53.710190	-125.867622	-96.985130	41.609539	-55.859825	-162.315704	680.338440	-434.927582	-186.204361	503.109863	-398.285400	-205.550674	360.852753	-462.886353	-198.834702	76.558189	-425.207367	-265.650146	60.797947	-376.884583	-57.965088	40.891422	-404.327209
31	0.30000000	-157.184509	1473.567749	-36.966400	-162.860443	1451.046265	-415.766724	-219.027298	1517.646606	-224.779434	-55.753365	1420.150635	-215.572525	-191.604660	1158.204468	134.235306	-173.319046	1117.650757	-514.685852	-113.392887	895.072845	103.055691	-86.870655	858.846649	-477.815247	-94.302544	1012.444885	-65.675186	-95.957535	1014.971741	-347.784760	-287.900574	1027.078857	-154.979568	-285.111969	1024.364502	-256.199860	-286.506271	1025.721680	-205.589714	-281.807404	1253.414673	-213.116409	-32.679527	1274.841064	-216.503372	-194.584549	638.558960	-2.161204	-178.509109	501.825623	-48.233604	-228.114044	303.398407	4.090775	-240.359177	82.282379	-60.920353	-293.863678	53.750774	-125.879433	-96.986275	41.618645	-55.853607	-162.332748	680.264526	-434.935699	-186.222641	503.133057	-398.323944	-205.463165	360.822083	-462.909027	-198.858978	76.575493	-425.192627	-265.682495	60.753643	-376.974609	-57.917164	40.914696	-404.372772
